# xmcd
#
# Track frame offsets:
#	182
#	21505
#	38905
#	58195
#	75507
#	95805
#	112505
#	131242
#	154437
#	172130
#	188310
#	213607
#	232362
#	254770
#	273930
#	292127
#
# Disc length: 4228 seconds
#
# Revision: 1
# Processed by: cddbd v1.5.2PL0 Copyright (c) Steve Scherf et al.
# Submitted via: audiograbber 1.83.01
#
DISCID=f8108210
DTITLE=Various Artist - New Soul USA
DYEAR=1997
DGENRE=R'NB
TTITLE0=Blackstreet feat Ol' Dirty Bastard and Slash - Fix
TTITLE1=Shola Ama - You might need somebody
TTITLE2=Mary J Blige feat Nas - Love is all we need
TTITLE3=Foxy Brown feat Blacksteet - Get me home
TTITLE4=Lil Kim - Not tonight
TTITLE5=Coolio feat 40 Thevz - C U when U get there
TTITLE6=Erikah Badu - Next Lifetime
TTITLE7=Rashaan Patterson - Where you are
TTITLE8=New Edition - One more day
TTITLE9=Chico Debarge - No guarantee
TTITLE10=Curtis Mayfield - New world order
TTITLE11=Keith Sweat - Twisted
TTITLE12=Joe - The love scene
TTITLE13=Levert - Sorry is
TTITLE14=Tasha Holiday - So real, so right
TTITLE15=Patti Labelle - When you talk about love
EXTD=
EXTT0=
EXTT1=
EXTT2=
EXTT3=
EXTT4=
EXTT5=
EXTT6=
EXTT7=
EXTT8=
EXTT9=
EXTT10=
EXTT11=
EXTT12=
EXTT13=
EXTT14=
EXTT15=
PLAYORDER=
